<?xml version="1.0" standalone="no"?>
<!DOCTYPE svg PUBLIC "-//W3C//DTD SVG 20010904//EN"
 "http://www.w3.org/TR/2001/REC-SVG-20010904/DTD/svg10.dtd">
<svg version="1.0" xmlns="http://www.w3.org/2000/svg"
 width="512.000000pt" height="512.000000pt" viewBox="0 0 512.000000 512.000000"
 preserveAspectRatio="xMidYMid meet">

<g transform="translate(0.000000,512.000000) scale(0.100000,-0.100000)"
fill="#000000" stroke="none">
<path d="M4166 4781 l-330 -330 -48 -352 c-27 -193 -47 -353 -45 -356 3 -2
161 17 353 43 l349 47 333 331 c182 182 332 333 332 337 0 4 -89 39 -197 79
-109 40 -209 78 -222 84 -19 9 -38 51 -104 229 -44 119 -83 217 -86 217 -3 0
-154 -148 -335 -329z"/>
<path d="M2190 4740 c-1045 -79 -1927 -855 -2140 -1883 -36 -174 -45 -270 -44
-487 0 -244 15 -374 69 -586 103 -403 300 -754 594 -1057 376 -387 830 -621
1366 -703 166 -25 513 -26 675 -1 511 80 939 289 1306 640 394 376 643 875
715 1432 18 137 15 448 -5 590 -30 214 -87 420 -168 615 -38 90 -86 189 -106
218 -8 12 -57 8 -283 -23 -151 -20 -282 -39 -291 -43 -15 -6 -9 -19 38 -92
209 -326 308 -713 283 -1112 -24 -370 -169 -738 -406 -1029 -81 -101 -257
-266 -363 -341 -109 -77 -335 -193 -461 -237 -533 -183 -1123 -108 -1599 203
-636 416 -950 1185 -784 1923 74 333 230 623 463 865 201 209 392 339 646 441
188 75 356 113 562 126 387 25 767 -71 1093 -277 81 -52 96 -58 102 -44 4 9
23 140 43 291 31 226 35 275 23 283 -38 25 -176 91 -280 132 -312 123 -705
181 -1048 156z"/>
<path d="M2253 3899 c-988 -74 -1646 -1070 -1331 -2013 71 -214 187 -403 352
-575 234 -242 522 -393 866 -453 124 -21 385 -16 517 10 408 81 761 316 989
657 192 290 278 615 253 960 -22 301 -137 600 -324 840 -15 19 -24 11 -205
-170 -105 -104 -190 -193 -190 -196 0 -4 18 -36 39 -72 48 -78 83 -160 112
-258 27 -95 37 -307 19 -416 -64 -398 -375 -724 -770 -808 -329 -69 -665 31
-905 269 -269 266 -361 668 -237 1026 106 303 368 546 684 632 71 20 107 23
253 23 147 0 181 -3 248 -23 103 -30 185 -65 264 -113 36 -21 68 -39 72 -39 3
0 92 85 196 190 181 181 189 190 170 205 -306 238 -686 353 -1072 324z"/>
<path d="M2209 3045 c-236 -58 -426 -241 -500 -485 -30 -96 -32 -262 -5 -360
51 -187 182 -349 355 -439 108 -56 186 -75 311 -75 126 0 202 18 320 76 67 33
101 58 165 122 142 144 196 266 203 461 5 140 -8 207 -64 324 l-35 75 -239
-239 -240 -240 -107 108 -108 107 240 240 239 239 -75 35 c-40 20 -101 42
-134 51 -73 19 -248 19 -326 0z"/>
</g>
</svg>
